<svg width="122" height="147" viewBox="0 0 122 147" fill="none" xmlns="http://www.w3.org/2000/svg">
<path d="M77.3108 42.8608C76.1783 39.6086 77.7749 36.0371 80.9536 34.7122L92.388 29.9463C97.2099 27.9365 102.316 32.1398 101.269 37.258L93.4152 75.6784C93.3716 75.8918 93.2988 76.0983 93.1988 76.2919V76.2919C92.242 78.1459 89.5311 77.954 88.845 75.9838L77.3108 42.8608Z" fill="#9CA6FF"/>
<rect y="43.9756" width="64.1116" height="94.2747" rx="9.19753" transform="rotate(-23.901 0 43.9756)" fill="#4255FF"/>
<path d="M74.258 36.0927C73.5354 34.1659 74.3344 32.0006 76.1354 31.0051L80.8432 28.4027C83.6082 26.8742 86.9989 28.874 86.999 32.0334L87 67.4293C87 67.4916 86.9878 67.5534 86.9641 67.611V67.611C86.7989 68.0135 86.226 68.0047 86.0732 67.5973L74.258 36.0927Z" fill="#4255FF"/>
</svg>
